<svg width="14" height="14" viewBox="0 0 14 14" fill="none" xmlns="http://www.w3.org/2000/svg">
<g clip-path="url(#clip0_1613_4539)">
<path d="M7.00033 1.16675C4.74283 1.16675 2.91699 2.99258 2.91699 5.25008C2.91699 7.68258 5.49533 11.0367 6.55699 12.3142C6.79033 12.5942 7.21616 12.5942 7.44949 12.3142C8.50533 11.0367 11.0837 7.68258 11.0837 5.25008C11.0837 2.99258 9.25783 1.16675 7.00033 1.16675ZM7.00033 6.70842C6.19533 6.70842 5.54199 6.05508 5.54199 5.25008C5.54199 4.44508 6.19533 3.79175 7.00033 3.79175C7.80533 3.79175 8.45866 4.44508 8.45866 5.25008C8.45866 6.05508 7.80533 6.70842 7.00033 6.70842Z" fill="url(#paint0_linear_1613_4539)"/>
</g>
<defs>
<linearGradient id="paint0_linear_1613_4539" x1="11.0837" y1="12.5518" x2="0.317079" y2="4.81007" gradientUnits="userSpaceOnUse">
<stop stop-color="#5265FF"/>
<stop offset="1" stop-color="#7685FF"/>
</linearGradient>
<clipPath id="clip0_1613_4539">
<rect width="14" height="14" fill="white"/>
</clipPath>
</defs>
</svg>
