<svg width="46" height="27" viewBox="0 0 46 27" fill="none" xmlns="http://www.w3.org/2000/svg">
<path fill-rule="evenodd" clip-rule="evenodd" d="M8 22.22C8 23.0172 8.47494 23.7348 9.22317 24.0098C11.6316 24.8949 17.2269 26.708 22.6504 26.708C28.0594 26.708 33.4685 24.9045 35.8033 24.0168C36.5374 23.7377 37 23.0283 37 22.2428C37 20.8067 35.5077 19.8082 34.1459 20.2644C31.3982 21.1847 27.0164 22.3617 22.5773 22.3617C18.102 22.3617 13.6266 21.1654 10.8386 20.2419C9.48012 19.7919 8 20.789 8 22.22Z" fill="#5265FF"/>
<path opacity="0.2" fill-rule="evenodd" clip-rule="evenodd" d="M0 4.74444C0 4.17489 0.222336 3.62644 0.65462 3.25561C1.71934 2.34226 3.92308 0.708252 6.06222 0.708252C8.21027 0.708252 10.3583 2.35591 11.3819 3.26699C11.792 3.63201 12 4.16154 12 4.71055C12 6.66118 9.35024 7.77079 7.47794 7.22356C7.00577 7.08556 6.51971 7.00325 6.03197 7.00325C5.51715 7.00325 5.00233 7.09496 4.50251 7.24707C2.62976 7.81701 0 6.70199 0 4.74444Z" fill="#5265FF"/>
<path opacity="0.2" fill-rule="evenodd" clip-rule="evenodd" d="M34 4.74444C34 4.17489 34.2223 3.62644 34.6546 3.25561C35.7193 2.34226 37.9231 0.708252 40.0622 0.708252C42.2103 0.708252 44.3583 2.35591 45.3819 3.26699C45.792 3.63201 46 4.16154 46 4.71055C46 6.66118 43.3502 7.77079 41.4779 7.22356C41.0058 7.08556 40.5197 7.00325 40.032 7.00325C39.5172 7.00325 39.0023 7.09496 38.5025 7.24707C36.6298 7.81701 34 6.70199 34 4.74444Z" fill="#5265FF"/>
</svg>
