<svg width="28" height="24" viewBox="0 0 28 24" fill="none" xmlns="http://www.w3.org/2000/svg">
<path d="M14.4549 2.28931C8.38214 2.28931 3.44141 6.61822 3.44141 11.939C3.44141 17.2598 8.38214 21.5887 14.4549 21.5887C20.5277 21.5887 25.4685 17.2598 25.4685 11.939C25.4685 6.61822 20.5277 2.28931 14.4549 2.28931ZM16.1493 16.3927H12.7606C12.5359 16.3927 12.3204 16.3145 12.1615 16.1753C12.0026 16.0361 11.9134 15.8473 11.9134 15.6504C11.9134 15.4536 12.0026 15.2648 12.1615 15.1256C12.3204 14.9864 12.5359 14.9082 12.7606 14.9082H16.1493C16.374 14.9082 16.5895 14.9864 16.7484 15.1256C16.9073 15.2648 16.9965 15.4536 16.9965 15.6504C16.9965 15.8473 16.9073 16.0361 16.7484 16.1753C16.5895 16.3145 16.374 16.3927 16.1493 16.3927ZM18.6909 13.4236H10.219C9.99428 13.4236 9.77879 13.3454 9.61991 13.2062C9.46103 13.067 9.37177 12.8782 9.37177 12.6813C9.37177 12.4844 9.46103 12.2956 9.61991 12.1564C9.77879 12.0172 9.99428 11.939 10.219 11.939H18.6909C18.9156 11.939 19.1311 12.0172 19.29 12.1564C19.4489 12.2956 19.5381 12.4844 19.5381 12.6813C19.5381 12.8782 19.4489 13.067 19.29 13.2062C19.1311 13.3454 18.9156 13.4236 18.6909 13.4236ZM20.3853 10.4544H8.52458C8.29989 10.4544 8.0844 10.3762 7.92552 10.237C7.76664 10.0978 7.67738 9.90903 7.67738 9.71216C7.67738 9.5153 7.76664 9.32649 7.92552 9.18729C8.0844 9.04808 8.29989 8.96988 8.52458 8.96988H20.3853C20.61 8.96988 20.8255 9.04808 20.9844 9.18729C21.1432 9.32649 21.2325 9.5153 21.2325 9.71216C21.2325 9.90903 21.1432 10.0978 20.9844 10.237C20.8255 10.3762 20.61 10.4544 20.3853 10.4544Z" fill="white"/>
</svg>
