<svg width="15" height="14" viewBox="0 0 15 14" fill="none" xmlns="http://www.w3.org/2000/svg">
<path fill-rule="evenodd" clip-rule="evenodd" d="M6.78888 10.9783L2.74217 13.0492C2.41907 13.206 2.02102 13.095 1.8429 12.7983V12.7983C1.79137 12.7064 1.76357 12.6046 1.76172 12.5008V3.325C1.76172 1.575 3.04193 0.875 4.88418 0.875H9.21191C10.998 0.875 12.3344 1.52833 12.3344 3.20833V12.5008C12.3344 12.6664 12.264 12.8251 12.1387 12.9422C12.0134 13.0592 11.8434 13.125 11.6662 13.125C11.5531 13.1233 11.442 13.0974 11.3414 13.0492L7.26974 10.9783C7.1197 10.9026 6.93892 10.9026 6.78888 10.9783Z" stroke="#EB5757" stroke-width="1.5" stroke-linecap="round" stroke-linejoin="round"/>
</svg>
