<svg width="24" height="24" viewBox="0 0 24 24" fill="none" xmlns="http://www.w3.org/2000/svg">
<path d="M18.9995 11H7.82949L12.7095 6.11997C13.0995 5.72997 13.0995 5.08997 12.7095 4.69997C12.3195 4.30997 11.6895 4.30997 11.2995 4.69997L4.70949 11.29C4.31949 11.68 4.31949 12.31 4.70949 12.7L11.2995 19.29C11.6895 19.68 12.3195 19.68 12.7095 19.29C13.0995 18.9 13.0995 18.27 12.7095 17.88L7.82949 13H18.9995C19.5495 13 19.9995 12.55 19.9995 12C19.9995 11.45 19.5495 11 18.9995 11Z" fill="url(#paint0_linear_1642_1198)"/>
<defs>
<linearGradient id="paint0_linear_1642_1198" x1="19.9995" y1="19.6193" x2="4.82982" y2="4.0423" gradientUnits="userSpaceOnUse">
<stop stop-color="#5265FF"/>
<stop offset="1" stop-color="#7685FF"/>
</linearGradient>
</defs>
</svg>
